# xmcd CD database file
#
# Track frame offsets:
#	150
#	3883
#	17565
#	31602
#	76188
#	116341
#	126855
#	176169
#	188490
#	230067
#	289781
#	325473
#
# Disc length: 4497 seconds
#
# Revision: 0
# Processed by: cddbd v1.5.2PL0 Copyright (c) Steve Scherf et al.
# Submitted via: CDex 1.77
#
DISCID=8f118f0c
DTITLE=Marcus Strickland - Open Reel Deck
DYEAR=2007
DGENRE=Jazz
TTITLE0=Intro (Vista)
TTITLE1=Open Reel Deck
TTITLE2=In-
TTITLE3=Pilgrimage
TTITLE4=Sneaky Deaky
TTITLE5=cep-
TTITLE6=Subway Suite 2nd Movement
TTITLE7=tion
TTITLE8=Prospectus
TTITLE9=Virtue
TTITLE10=Volatility
TTITLE11=Outro (Vista)
EXTD=YEAR: 2007
EXTT0=
EXTT1=
EXTT2=
EXTT3=
EXTT4=
EXTT5=
EXTT6=
EXTT7=
EXTT8=
EXTT9=
EXTT10=
EXTT11=
PLAYORDER=
